<svg width="45" height="45" viewBox="0 0 45 45" fill="none" xmlns="http://www.w3.org/2000/svg">
<rect width="45" height="45" rx="22.5" fill="white"/>
<path d="M22.6038 7.03156C22.1028 7.12966 21.6376 7.3534 21.2553 7.68016C20.8729 8.00692 20.5869 8.42511 20.4263 8.89243C20.2604 9.45652 20.2657 10.0545 20.4415 10.6158C20.8698 11.7107 21.9814 12.4816 23.1389 12.4816C23.7825 12.4611 24.4032 12.2463 24.9132 11.8676C25.2253 11.6305 25.4816 11.3324 25.6653 10.9929C25.849 10.6535 25.9558 10.2804 25.9789 9.89823C26.0138 9.29167 25.8398 8.69099 25.4839 8.1894C25.128 7.6878 24.6102 7.31334 24.0107 7.12412C23.6341 7.01198 22.9151 6.96286 22.6038 7.03156Z" fill="#003366"/>
<path d="M13.8322 29.4138C13.3224 30.0195 12.6827 30.7843 12.3823 31.1386C12.1529 31.4086 11.7909 31.8357 11.5818 32.0862C11.5295 32.1488 11.3843 32.3862 11.3843 32.3862C11.3843 32.3862 11.9136 33.2289 11.9752 33.1697C12.0873 33.0618 12.8114 32.4774 13.5814 31.8686C13.9652 31.5652 15.1708 30.5411 15.1708 30.5411C15.1708 30.5411 14.5777 30.421 14.2775 30.1171C14.0846 29.9116 13.9336 29.673 13.8322 29.4138Z" fill="#003366"/>
<path d="M11.1182 32.4414C11.1182 32.4414 9.84774 33.1237 9.67496 33.3205C9.41595 33.6149 9.32393 33.8137 9.35303 34.0162C9.38487 34.2396 9.94886 35.1174 10.4369 35.6935C11.1249 36.5105 11.7589 37.0394 12.0705 37.0569C12.1621 37.0469 12.2511 37.0215 12.3336 36.9819C12.4613 36.9078 12.1836 36.4278 12.1836 36.4278C12.1836 36.4278 11.6379 34.8883 11.5426 34.5064C11.4027 33.9458 11.8524 33.457 11.8524 33.457L11.1182 32.4414Z" fill="#003366"/>
<path d="M33.8116 7.42926C33.577 7.49309 33.3731 7.70915 32.9041 8.37203C31.6701 10.1347 30.1558 11.5193 28.4167 12.4669C27.2745 13.0856 25.6786 13.5128 24.4958 13.5128C23.8872 13.4943 23.2807 13.4353 22.6806 13.336C22.441 13.2967 21.8699 13.1985 21.4054 13.1151C20.7748 13.0012 20.1349 12.942 19.4933 12.9383C17.6373 12.8892 16.3829 13.0807 14.7774 13.6699C13.416 14.1658 11.8812 15.1379 10.5198 16.3556C9.39291 17.3671 9.19922 17.6617 9.39808 18.03C9.5001 18.2215 9.63773 18.2848 9.92838 18.2804C10.3567 18.2804 10.9583 18.0202 12.131 17.3377C13.4058 16.5962 14.5513 16.1281 15.5676 15.9333C16.256 15.8059 17.4644 15.8155 18.0406 15.9579C18.9278 16.1838 19.6314 16.6404 19.9731 17.21C20.3708 17.8826 20.3861 18.8499 20.0138 19.8024C19.6416 20.7549 18.5657 22.503 17.3165 24.1919C17.1534 24.408 16.9596 24.6732 16.8834 24.7763C16.3781 25.4637 15.0788 27.084 14.125 28.2181C13.6987 28.7243 14.0377 29.6389 14.6838 30.0532C15.3359 30.4717 16.3264 30.3646 16.3264 30.3646C16.9061 29.891 17.5617 29.351 18.2704 28.7632C19.4686 27.7714 20.4782 26.8973 22.2423 25.3361C22.34 25.2398 22.4539 25.1601 22.5792 25.1004C22.7423 25.1004 24.4606 25.3553 24.9196 25.449C25.5244 25.577 26.1204 25.7409 26.7042 25.94C27.2855 26.1806 27.316 26.4653 26.8215 27.0644C26.1128 27.9188 24.5831 29.4212 23.0993 30.7174C22.795 30.972 22.5088 31.2459 22.2427 31.5374C22.1965 31.6382 22.1734 31.7475 22.1752 31.8577C22.177 31.9678 22.2035 32.0764 22.2529 32.1757C22.36 32.3771 22.9209 32.981 23.5532 33.5751C24.4097 34.3803 24.8483 34.7191 25.2001 34.8467C25.4047 34.9204 25.4347 34.9204 25.5774 34.8516C25.8421 34.7191 25.8375 34.562 25.5162 33.6438C25.2 32.7354 25.0267 32.1168 25.0267 31.9204C25.0267 31.7582 25.2 31.5914 25.6385 31.3214C26.9489 30.5161 28.5703 29.4214 29.2332 28.8909C30.8955 27.5652 31.4513 26.7354 31.39 25.6552C31.3697 25.3016 31.339 25.1985 31.1453 24.8205C30.661 23.8778 29.371 22.9105 27.8056 22.3115C27.1618 22.0571 26.4918 21.8695 25.8068 21.7517C25.6618 21.7409 25.5191 21.7095 25.3836 21.6584C25.3836 21.5505 26.3677 19.3507 26.7347 18.6437C27.5149 17.1216 27.8667 16.714 29.59 15.3098C31.4307 13.8173 32.2466 12.9824 33.1337 11.7059C33.7506 10.8123 34.4492 9.23614 34.6226 8.32778C34.6736 8.0626 34.6684 7.98904 34.592 7.79754C34.5672 7.72315 34.5271 7.65434 34.474 7.59524C34.4209 7.53614 34.356 7.48795 34.2832 7.45357C34.2103 7.41918 34.131 7.39931 34.05 7.39513C33.9689 7.39096 33.8879 7.40256 33.8116 7.42926Z" fill="#003366"/>
</svg>
