<svg width="213" height="108" viewBox="0 0 213 108" fill="none" xmlns="http://www.w3.org/2000/svg">
<path d="M13.0278 48.1963C11.6138 48.1963 10.4308 48.0283 9.47877 47.6923C8.52677 47.3423 7.80577 46.8243 7.31577 46.1383C6.83977 45.4523 6.60177 44.5773 6.60177 43.5133C6.60177 43.1773 6.62277 42.8203 6.66477 42.4423C6.72077 42.0503 6.77677 41.6723 6.83277 41.3083C6.90277 40.9443 6.96577 40.6293 7.02177 40.3633C7.07777 40.0973 7.11977 39.9083 7.14777 39.7963L9.05877 40.1533C9.01677 40.3773 8.95377 40.6783 8.86977 41.0563C8.79977 41.4343 8.72977 41.8403 8.65977 42.2743C8.58977 42.7083 8.55477 43.1213 8.55477 43.5133C8.55477 44.0313 8.63877 44.4793 8.80677 44.8573C8.97477 45.2353 9.23377 45.5433 9.58377 45.7813C9.94777 46.0193 10.4098 46.1943 10.9698 46.3063C11.5438 46.4043 12.2438 46.4533 13.0698 46.4533H24.5568L23.5278 47.3353V38.7463L24.3468 39.4393H21.0288C20.2728 39.4393 19.6848 39.5303 19.2648 39.7123C18.8588 39.8943 18.5718 40.2373 18.4038 40.7413C18.2498 41.2453 18.1728 41.9803 18.1728 42.9463C18.1728 43.9123 18.2498 44.6473 18.4038 45.1513C18.5718 45.6553 18.8588 45.9983 19.2648 46.1803C19.6848 46.3623 20.2728 46.4533 21.0288 46.4533V47.8183C19.8248 47.8183 18.8658 47.6643 18.1518 47.3563C17.4518 47.0483 16.9478 46.5373 16.6398 45.8233C16.3458 45.1093 16.1988 44.1503 16.1988 42.9463C16.1988 41.7563 16.3458 40.7763 16.6398 40.0063C16.9478 39.2223 17.4518 38.6413 18.1518 38.2633C18.8658 37.8713 19.8248 37.6753 21.0288 37.6753H25.5018V48.1963H13.0278ZM20.3568 35.7853V33.7483H22.3308V35.7853H20.3568ZM29.2416 48.1963V33.2023H31.1946V48.1963H29.2416ZM37.1428 48.1963V46.4533H39.8308V48.1963H37.1428ZM33.5308 53.0053C33.3488 53.0053 33.1598 52.9913 32.9638 52.9633C32.7538 52.9493 32.5438 52.9353 32.3338 52.9213L32.5018 51.1783C32.7118 51.1923 32.9078 51.2063 33.0898 51.2203C33.2578 51.2343 33.3978 51.2413 33.5098 51.2413C34.1398 51.2413 34.6438 51.0033 35.0218 50.5273C35.4138 50.0513 35.6098 49.3863 35.6098 48.5323V37.6753H37.5838V48.5323C37.5838 49.4143 37.4088 50.1913 37.0588 50.8633C36.7088 51.5353 36.2328 52.0603 35.6308 52.4383C35.0288 52.8163 34.3288 53.0053 33.5308 53.0053ZM39.8308 48.1963V46.4533C39.9148 46.4533 39.9848 46.4743 40.0408 46.5163C40.0968 46.5583 40.1388 46.6143 40.1668 46.6843C40.1948 46.7543 40.2158 46.8453 40.2298 46.9573C40.2438 47.0553 40.2508 47.1743 40.2508 47.3143C40.2508 47.4403 40.2438 47.5593 40.2298 47.6713C40.2158 47.7833 40.1948 47.8813 40.1668 47.9653C40.1388 48.0353 40.0968 48.0913 40.0408 48.1333C39.9848 48.1753 39.9148 48.1963 39.8308 48.1963ZM39.8389 48.1963V46.4533H45.0889V48.1963H39.8389ZM45.0889 48.1963V46.4533C45.1729 46.4533 45.2429 46.4743 45.2989 46.5163C45.3549 46.5583 45.3969 46.6143 45.4249 46.6843C45.4529 46.7543 45.4739 46.8453 45.4879 46.9573C45.5019 47.0553 45.5089 47.1743 45.5089 47.3143C45.5089 47.4403 45.5019 47.5593 45.4879 47.6713C45.4739 47.7833 45.4529 47.8813 45.4249 47.9653C45.3969 48.0353 45.3549 48.0913 45.2989 48.1333C45.2429 48.1753 45.1729 48.1963 45.0889 48.1963ZM39.8389 48.1963C39.7549 48.1963 39.6849 48.1753 39.6289 48.1333C39.5729 48.0913 39.5309 48.0353 39.5029 47.9653C39.4749 47.8813 39.4539 47.7833 39.4399 47.6713C39.4259 47.5593 39.4189 47.4403 39.4189 47.3143C39.4189 47.1323 39.4329 46.9783 39.4609 46.8523C39.4749 46.7263 39.5169 46.6283 39.5869 46.5583C39.6429 46.4883 39.7269 46.4533 39.8389 46.4533V48.1963ZM45.0889 48.1963V46.4533H50.3389V48.1963H45.0889ZM50.3389 48.1963V46.4533C50.4229 46.4533 50.4929 46.4743 50.5489 46.5163C50.6049 46.5583 50.6469 46.6143 50.6749 46.6843C50.7029 46.7543 50.7239 46.8453 50.7379 46.9573C50.7519 47.0553 50.7589 47.1743 50.7589 47.3143C50.7589 47.4403 50.7519 47.5593 50.7379 47.6713C50.7239 47.7833 50.7029 47.8813 50.6749 47.9653C50.6469 48.0353 50.6049 48.0913 50.5489 48.1333C50.4929 48.1753 50.4229 48.1963 50.3389 48.1963ZM45.0889 48.1963C45.0049 48.1963 44.9349 48.1753 44.8789 48.1333C44.8229 48.0913 44.7809 48.0353 44.7529 47.9653C44.7249 47.8813 44.7039 47.7833 44.6899 47.6713C44.6759 47.5593 44.6689 47.4403 44.6689 47.3143C44.6689 47.1323 44.6829 46.9783 44.7109 46.8523C44.7249 46.7263 44.7669 46.6283 44.8369 46.5583C44.8929 46.4883 44.9769 46.4533 45.0889 46.4533V48.1963ZM50.3389 48.1963V46.4533H55.5889V48.1963H50.3389ZM55.5889 48.1963V46.4533C55.6729 46.4533 55.7429 46.4743 55.7989 46.5163C55.8549 46.5583 55.8969 46.6143 55.9249 46.6843C55.9529 46.7543 55.9739 46.8453 55.9879 46.9573C56.0019 47.0553 56.0089 47.1743 56.0089 47.3143C56.0089 47.4403 56.0019 47.5593 55.9879 47.6713C55.9739 47.7833 55.9529 47.8813 55.9249 47.9653C55.8969 48.0353 55.8549 48.0913 55.7989 48.1333C55.7429 48.1753 55.6729 48.1963 55.5889 48.1963ZM50.3389 48.1963C50.2549 48.1963 50.1849 48.1753 50.1289 48.1333C50.0729 48.0913 50.0309 48.0353 50.0029 47.9653C49.9749 47.8813 49.9539 47.7833 49.9399 47.6713C49.9259 47.5593 49.9189 47.4403 49.9189 47.3143C49.9189 47.1323 49.9329 46.9783 49.9609 46.8523C49.9749 46.7263 50.0169 46.6283 50.0869 46.5583C50.1429 46.4883 50.2269 46.4533 50.3389 46.4533V48.1963ZM55.5889 48.1963V46.4533H69.7219L67.9579 48.0073V43.1983C67.9579 42.3443 67.8389 41.6443 67.6009 41.0983C67.3769 40.5383 67.0339 40.1253 66.5719 39.8593C66.1099 39.5793 65.5359 39.4393 64.8499 39.4393C64.2479 39.4393 63.6809 39.5443 63.1489 39.7543C62.6169 39.9643 62.1269 40.2443 61.6789 40.5943C61.2309 40.9303 60.8109 41.3013 60.4189 41.7073C60.0269 42.1133 59.6699 42.5193 59.3479 42.9253C59.0399 43.3313 58.7599 43.6953 58.5079 44.0173L57.9199 42.3793C58.3959 41.7773 58.8649 41.2033 59.3269 40.6573C59.7889 40.0973 60.2859 39.5933 60.8179 39.1453C61.3639 38.6973 61.9659 38.3403 62.6239 38.0743C63.2959 37.8083 64.0659 37.6753 64.9339 37.6753C65.9139 37.6753 66.7259 37.8433 67.3699 38.1793C68.0139 38.5153 68.5179 38.9563 68.8819 39.5023C69.2599 40.0483 69.5259 40.6503 69.6799 41.3083C69.8339 41.9523 69.9109 42.5823 69.9109 43.1983V48.1963H55.5889ZM56.9959 46.4533V33.2023H58.9489V46.4533H56.9959ZM55.5889 48.1963C55.5049 48.1963 55.4349 48.1753 55.3789 48.1333C55.3229 48.0913 55.2809 48.0353 55.2529 47.9653C55.2249 47.8813 55.2039 47.7833 55.1899 47.6713C55.1759 47.5593 55.1689 47.4403 55.1689 47.3143C55.1689 47.1323 55.1829 46.9783 55.2109 46.8523C55.2249 46.7263 55.2669 46.6283 55.3369 46.5583C55.3929 46.4883 55.4769 46.4533 55.5889 46.4533V48.1963ZM72.2814 48.1963V46.4533H82.6554L81.6264 47.5033V33.2023H83.5794V48.1963H72.2814ZM75.5154 46.4533V36.1633H77.4684V46.4533H75.5154ZM75.4524 34.6723C75.2144 34.3783 75.0324 34.0983 74.9064 33.8323C74.7804 33.5523 74.7174 33.2583 74.7174 32.9503C74.7174 32.5303 74.8224 32.1523 75.0324 31.8163C75.2564 31.4803 75.5434 31.2143 75.8934 31.0183C76.2574 30.8223 76.6424 30.7243 77.0484 30.7243C77.2864 30.7243 77.5244 30.7593 77.7624 30.8293C78.0004 30.8993 78.2104 30.9903 78.3924 31.1023L77.8044 32.1313C77.6924 32.0613 77.5804 32.0193 77.4684 32.0053C77.3564 31.9773 77.2444 31.9633 77.1324 31.9633C76.7964 31.9633 76.5374 32.0543 76.3554 32.2363C76.1734 32.4183 76.0824 32.6563 76.0824 32.9503C76.0824 33.1323 76.1174 33.3073 76.1874 33.4753C76.2574 33.6293 76.3694 33.8043 76.5234 34.0003L75.4524 34.6723ZM74.2974 34.7143V33.4963H78.6864V34.7143H74.2974ZM87.2172 48.1963V33.2023H89.1702V48.1963H87.2172ZM99.7122 48.1963V46.4533H102.4V48.1963H99.7122ZM96.1002 53.0053C95.9182 53.0053 95.7292 52.9913 95.5332 52.9633C95.3232 52.9493 95.1132 52.9353 94.9032 52.9213L95.0712 51.1783C95.2812 51.1923 95.4772 51.2063 95.6592 51.2203C95.8272 51.2343 95.9672 51.2413 96.0792 51.2413C96.7092 51.2413 97.2132 51.0033 97.5912 50.5273C97.9832 50.0513 98.1792 49.3863 98.1792 48.5323V37.6753H100.153V48.5323C100.153 49.4143 99.9782 50.1913 99.6282 50.8633C99.2782 51.5353 98.8022 52.0603 98.2002 52.4383C97.5982 52.8163 96.8982 53.0053 96.1002 53.0053ZM102.4 48.1963V46.4533C102.484 46.4533 102.554 46.4743 102.61 46.5163C102.666 46.5583 102.708 46.6143 102.736 46.6843C102.764 46.7543 102.785 46.8453 102.799 46.9573C102.813 47.0553 102.82 47.1743 102.82 47.3143C102.82 47.4403 102.813 47.5593 102.799 47.6713C102.785 47.7833 102.764 47.8813 102.736 47.9653C102.708 48.0353 102.666 48.0913 102.61 48.1333C102.554 48.1753 102.484 48.1963 102.4 48.1963ZM98.1792 35.7853V33.7483H100.153V35.7853H98.1792ZM102.408 48.1963V46.4533H107.658V48.1963H102.408ZM107.658 48.1963V46.4533C107.742 46.4533 107.812 46.4743 107.868 46.5163C107.924 46.5583 107.966 46.6143 107.994 46.6843C108.022 46.7543 108.043 46.8453 108.057 46.9573C108.071 47.0553 108.078 47.1743 108.078 47.3143C108.078 47.4403 108.071 47.5593 108.057 47.6713C108.043 47.7833 108.022 47.8813 107.994 47.9653C107.966 48.0353 107.924 48.0913 107.868 48.1333C107.812 48.1753 107.742 48.1963 107.658 48.1963ZM102.408 48.1963C102.324 48.1963 102.254 48.1753 102.198 48.1333C102.142 48.0913 102.1 48.0353 102.072 47.9653C102.044 47.8813 102.023 47.7833 102.009 47.6713C101.995 47.5593 101.988 47.4403 101.988 47.3143C101.988 47.1323 102.002 46.9783 102.03 46.8523C102.044 46.7263 102.086 46.6283 102.156 46.5583C102.212 46.4883 102.296 46.4533 102.408 46.4533V48.1963ZM107.658 48.1963V46.4533H112.908V48.1963H107.658ZM112.908 48.1963V46.4533C112.992 46.4533 113.062 46.4743 113.118 46.5163C113.174 46.5583 113.216 46.6143 113.244 46.6843C113.272 46.7543 113.293 46.8453 113.307 46.9573C113.321 47.0553 113.328 47.1743 113.328 47.3143C113.328 47.4403 113.321 47.5593 113.307 47.6713C113.293 47.7833 113.272 47.8813 113.244 47.9653C113.216 48.0353 113.174 48.0913 113.118 48.1333C113.062 48.1753 112.992 48.1963 112.908 48.1963ZM107.658 48.1963C107.574 48.1963 107.504 48.1753 107.448 48.1333C107.392 48.0913 107.35 48.0353 107.322 47.9653C107.294 47.8813 107.273 47.7833 107.259 47.6713C107.245 47.5593 107.238 47.4403 107.238 47.3143C107.238 47.1323 107.252 46.9783 107.28 46.8523C107.294 46.7263 107.336 46.6283 107.406 46.5583C107.462 46.4883 107.546 46.4533 107.658 46.4533V48.1963ZM112.908 48.1963V46.4533H118.158V48.1963H112.908ZM118.158 48.1963V46.4533C118.242 46.4533 118.312 46.4743 118.368 46.5163C118.424 46.5583 118.466 46.6143 118.494 46.6843C118.522 46.7543 118.543 46.8453 118.557 46.9573C118.571 47.0553 118.578 47.1743 118.578 47.3143C118.578 47.4403 118.571 47.5593 118.557 47.6713C118.543 47.7833 118.522 47.8813 118.494 47.9653C118.466 48.0353 118.424 48.0913 118.368 48.1333C118.312 48.1753 118.242 48.1963 118.158 48.1963ZM112.908 48.1963C112.824 48.1963 112.754 48.1753 112.698 48.1333C112.642 48.0913 112.6 48.0353 112.572 47.9653C112.544 47.8813 112.523 47.7833 112.509 47.6713C112.495 47.5593 112.488 47.4403 112.488 47.3143C112.488 47.1323 112.502 46.9783 112.53 46.8523C112.544 46.7263 112.586 46.6283 112.656 46.5583C112.712 46.4883 112.796 46.4533 112.908 46.4533V48.1963ZM118.158 48.1963V46.4533H128.658L127.986 47.0413V43.5343C127.986 42.7923 127.888 42.1833 127.692 41.7073C127.51 41.2173 127.23 40.8603 126.852 40.6363C126.474 40.3983 126.005 40.2793 125.445 40.2793H120.846L119.502 38.2843L120.468 36.4573C120.622 36.1773 120.783 35.8833 120.951 35.5753C121.133 35.2533 121.35 34.8893 121.602 34.4833C121.868 34.0633 122.204 33.5593 122.61 32.9713L124.248 33.9163C123.856 34.5183 123.534 35.0153 123.282 35.4073C123.044 35.7993 122.841 36.1423 122.673 36.4363C122.505 36.7163 122.344 36.9963 122.19 37.2763L121.203 39.1663L120.783 38.5363H125.445C126.327 38.5363 127.062 38.6903 127.65 38.9983C128.238 39.2923 128.693 39.6843 129.015 40.1743C129.351 40.6643 129.589 41.2103 129.729 41.8123C129.883 42.4003 129.96 42.9743 129.96 43.5343V48.1963H118.158ZM118.158 48.1963C118.074 48.1963 118.004 48.1753 117.948 48.1333C117.892 48.0913 117.85 48.0353 117.822 47.9653C117.794 47.8813 117.773 47.7833 117.759 47.6713C117.745 47.5593 117.738 47.4403 117.738 47.3143C117.738 47.1323 117.752 46.9783 117.78 46.8523C117.794 46.7263 117.836 46.6283 117.906 46.5583C117.962 46.4883 118.046 46.4533 118.158 46.4533V48.1963ZM135.457 48.1963V46.4533H138.145V48.1963H135.457ZM131.845 53.0053C131.663 53.0053 131.474 52.9913 131.278 52.9633C131.068 52.9493 130.858 52.9353 130.648 52.9213L130.816 51.1783C131.026 51.1923 131.222 51.2063 131.404 51.2203C131.572 51.2343 131.712 51.2413 131.824 51.2413C132.454 51.2413 132.958 51.0033 133.336 50.5273C133.728 50.0513 133.924 49.3863 133.924 48.5323V37.6753H135.898V48.5323C135.898 49.4143 135.723 50.1913 135.373 50.8633C135.023 51.5353 134.547 52.0603 133.945 52.4383C133.343 52.8163 132.643 53.0053 131.845 53.0053ZM138.145 48.1963V46.4533C138.229 46.4533 138.299 46.4743 138.355 46.5163C138.411 46.5583 138.453 46.6143 138.481 46.6843C138.509 46.7543 138.53 46.8453 138.544 46.9573C138.558 47.0553 138.565 47.1743 138.565 47.3143C138.565 47.4403 138.558 47.5593 138.544 47.6713C138.53 47.7833 138.509 47.8813 138.481 47.9653C138.453 48.0353 138.411 48.0913 138.355 48.1333C138.299 48.1753 138.229 48.1963 138.145 48.1963ZM138.153 48.1963V46.4533H143.403V48.1963H138.153ZM143.403 48.1963V46.4533C143.487 46.4533 143.557 46.4743 143.613 46.5163C143.669 46.5583 143.711 46.6143 143.739 46.6843C143.767 46.7543 143.788 46.8453 143.802 46.9573C143.816 47.0553 143.823 47.1743 143.823 47.3143C143.823 47.4403 143.816 47.5593 143.802 47.6713C143.788 47.7833 143.767 47.8813 143.739 47.9653C143.711 48.0353 143.669 48.0913 143.613 48.1333C143.557 48.1753 143.487 48.1963 143.403 48.1963ZM138.153 48.1963C138.069 48.1963 137.999 48.1753 137.943 48.1333C137.887 48.0913 137.845 48.0353 137.817 47.9653C137.789 47.8813 137.768 47.7833 137.754 47.6713C137.74 47.5593 137.733 47.4403 137.733 47.3143C137.733 47.1323 137.747 46.9783 137.775 46.8523C137.789 46.7263 137.831 46.6283 137.901 46.5583C137.957 46.4883 138.041 46.4533 138.153 46.4533V48.1963ZM143.403 48.1963V46.4533H154.722L153.483 47.3773V43.0303C153.483 42.1063 153.378 41.3853 153.168 40.8673C152.972 40.3493 152.622 39.9783 152.118 39.7543C151.614 39.5303 150.928 39.4183 150.06 39.4183C149.472 39.4183 148.891 39.4603 148.317 39.5443C147.743 39.6283 147.295 39.7403 146.973 39.8803L148.17 38.7043C148.086 39.0263 148.002 39.4393 147.918 39.9433C147.834 40.4473 147.764 40.9933 147.708 41.5813C147.652 42.1553 147.624 42.7293 147.624 43.3033C147.624 43.8773 147.652 44.4443 147.708 45.0043C147.764 45.5643 147.827 46.0543 147.897 46.4743C147.967 46.8943 148.023 47.1813 148.065 47.3353L146.196 47.8603C146.14 47.6783 146.07 47.3633 145.986 46.9153C145.916 46.4673 145.846 45.9283 145.776 45.2983C145.72 44.6683 145.692 44.0033 145.692 43.3033C145.692 42.6173 145.72 41.9523 145.776 41.3083C145.846 40.6503 145.923 40.0553 146.007 39.5233C146.105 38.9913 146.196 38.5643 146.28 38.2423C146.602 38.1163 147.099 37.9903 147.771 37.8643C148.457 37.7383 149.22 37.6753 150.06 37.6753C151.25 37.6753 152.244 37.8503 153.042 38.2003C153.854 38.5503 154.456 39.1173 154.848 39.9013C155.254 40.6713 155.457 41.7143 155.457 43.0303V48.1963H143.403ZM143.403 48.1963C143.319 48.1963 143.249 48.1753 143.193 48.1333C143.137 48.0913 143.095 48.0353 143.067 47.9653C143.039 47.8813 143.018 47.7833 143.004 47.6713C142.99 47.5593 142.983 47.4403 142.983 47.3143C142.983 47.1323 142.997 46.9783 143.025 46.8523C143.039 46.7263 143.081 46.6283 143.151 46.5583C143.207 46.4883 143.291 46.4533 143.403 46.4533V48.1963ZM11.7381 81.4043C10.8981 81.4043 10.1141 81.2853 9.38608 81.0473C8.67208 80.8093 8.04208 80.4733 7.49608 80.0393C6.96408 79.6193 6.54408 79.1153 6.23608 78.5273C5.94208 77.9393 5.79508 77.3023 5.79508 76.6163C5.79508 76.3363 5.81608 75.9723 5.85808 75.5243C5.91408 75.0623 5.97708 74.5513 6.04708 73.9913C6.13108 73.4173 6.22208 72.8293 6.32008 72.2273L8.25208 72.4793C8.09808 73.4033 7.97208 74.2433 7.87408 74.9993C7.79008 75.7413 7.74808 76.2663 7.74808 76.5743C7.74808 77.1763 7.91608 77.7083 8.25208 78.1703C8.58808 78.6323 9.05708 78.9963 9.65908 79.2623C10.2611 79.5283 10.9541 79.6613 11.7381 79.6613H17.6811C18.7031 79.6613 19.4731 79.3813 19.9911 78.8213C20.5231 78.2753 20.7891 77.4703 20.7891 76.4063V75.6713H22.7421V76.4063C22.7421 77.3863 22.5391 78.2473 22.1331 78.9893C21.7411 79.7453 21.1671 80.3333 20.4111 80.7533C19.6691 81.1873 18.7591 81.4043 17.6811 81.4043H11.7381ZM19.6551 76.1963C19.1371 76.1963 18.6191 76.1403 18.1011 76.0283C17.5831 75.9163 17.0791 75.6993 16.5891 75.3773L17.7021 73.9283C17.8981 74.0543 18.0871 74.1593 18.2691 74.2433C18.4511 74.3273 18.6541 74.3833 18.8781 74.4113C19.1021 74.4393 19.3611 74.4533 19.6551 74.4533H23.8131V76.1963H19.6551ZM23.8131 76.1963V74.4533C23.8971 74.4533 23.9601 74.4743 24.0021 74.5163C24.0581 74.5583 24.1001 74.6143 24.1281 74.6843C24.1701 74.7543 24.1981 74.8453 24.2121 74.9573C24.2261 75.0553 24.2331 75.1743 24.2331 75.3143C24.2331 75.4403 24.2261 75.5593 24.2121 75.6713C24.1981 75.7833 24.1701 75.8813 24.1281 75.9653C24.1001 76.0353 24.0581 76.0913 24.0021 76.1333C23.9601 76.1753 23.8971 76.1963 23.8131 76.1963ZM11.7381 85.3733V83.3363H13.6701V85.3733H11.7381ZM14.8671 85.3733V83.3363H16.7991V85.3733H14.8671ZM23.8223 76.1963V74.4533H27.0983C27.8683 74.4533 28.6033 74.3203 29.3033 74.0543C30.0173 73.7883 30.6753 73.4383 31.2773 73.0043C31.8793 72.5703 32.3973 72.0873 32.8313 71.5553C33.2793 71.0233 33.6293 70.4843 33.8813 69.9383C34.1333 69.3923 34.2593 68.8743 34.2593 68.3843V67.1033L35.2673 68.6783C34.4693 68.2583 33.6783 67.9503 32.8943 67.7543C32.1243 67.5443 31.3753 67.4393 30.6473 67.4393C29.9333 67.4393 29.1843 67.5443 28.4003 67.7543C27.6303 67.9503 26.8533 68.2583 26.0693 68.6783L27.0773 67.1033V68.3843C27.0773 68.8743 27.2033 69.3923 27.4553 69.9383C27.7073 70.4843 28.0503 71.0233 28.4843 71.5553C28.9183 72.0873 29.4363 72.5703 30.0383 73.0043C30.6403 73.4383 31.2913 73.7883 31.9913 74.0543C32.7053 74.3203 33.4473 74.4533 34.2173 74.4533H37.3673V76.1963H34.4693C33.3773 76.1963 32.3553 76.0213 31.4033 75.6713C30.4513 75.3213 29.5903 74.8593 28.8203 74.2853C28.0503 73.6973 27.3853 73.0603 26.8253 72.3743C26.2793 71.6743 25.8593 70.9813 25.5653 70.2953C25.2713 69.5953 25.1243 68.9583 25.1243 68.3843V67.1453C25.7263 66.8233 26.3423 66.5573 26.9723 66.3473C27.6023 66.1233 28.2323 65.9553 28.8623 65.8433C29.4923 65.7313 30.0873 65.6753 30.6473 65.6753C31.2353 65.6753 31.8373 65.7313 32.4533 65.8433C33.0693 65.9553 33.6923 66.1233 34.3223 66.3473C34.9663 66.5573 35.5893 66.8233 36.1913 67.1453V68.3843C36.1913 68.9583 36.0443 69.5953 35.7503 70.2953C35.4563 70.9813 35.0293 71.6743 34.4693 72.3743C33.9233 73.0603 33.2653 73.6973 32.4953 74.2853C31.7253 74.8593 30.8643 75.3213 29.9123 75.6713C28.9603 76.0213 27.9383 76.1963 26.8463 76.1963H23.8223ZM23.8223 76.1963C23.7383 76.1963 23.6683 76.1753 23.6123 76.1333C23.5563 76.0913 23.5143 76.0353 23.4863 75.9653C23.4583 75.8813 23.4373 75.7833 23.4233 75.6713C23.4093 75.5593 23.4023 75.4403 23.4023 75.3143C23.4023 75.1323 23.4163 74.9783 23.4443 74.8523C23.4583 74.7263 23.5003 74.6283 23.5703 74.5583C23.6263 74.4883 23.7103 74.4533 23.8223 74.4533V76.1963ZM37.3673 76.1963V74.4533C37.4513 74.4533 37.5213 74.4743 37.5773 74.5163C37.6333 74.5583 37.6753 74.6143 37.7033 74.6843C37.7313 74.7543 37.7523 74.8453 37.7663 74.9573C37.7803 75.0553 37.7873 75.1743 37.7873 75.3143C37.7873 75.4403 37.7803 75.5593 37.7663 75.6713C37.7523 75.7833 37.7313 75.8813 37.7033 75.9653C37.6753 76.0353 37.6333 76.0913 37.5773 76.1333C37.5213 76.1753 37.4513 76.1963 37.3673 76.1963ZM41.8724 76.1963V74.4533H44.2454V76.1963H41.8724ZM44.2454 76.1963V74.4533C44.3294 74.4533 44.3994 74.4743 44.4554 74.5163C44.5114 74.5583 44.5534 74.6143 44.5814 74.6843C44.6094 74.7543 44.6304 74.8453 44.6444 74.9573C44.6584 75.0553 44.6654 75.1743 44.6654 75.3143C44.6654 75.4403 44.6584 75.5593 44.6444 75.6713C44.6304 75.7833 44.6094 75.8813 44.5814 75.9653C44.5534 76.0353 44.5114 76.0913 44.4554 76.1333C44.3994 76.1753 44.3294 76.1963 44.2454 76.1963ZM37.3574 76.1963C37.2734 76.1963 37.2034 76.1753 37.1474 76.1333C37.0914 76.0913 37.0494 76.0353 37.0214 75.9653C36.9934 75.8813 36.9724 75.7833 36.9584 75.6713C36.9444 75.5593 36.9374 75.4403 36.9374 75.3143C36.9374 75.1323 36.9514 74.9783 36.9794 74.8523C36.9934 74.7263 37.0354 74.6283 37.1054 74.5583C37.1614 74.4883 37.2454 74.4533 37.3574 74.4533V76.1963ZM37.3574 76.1963V74.4533H40.9274L39.9194 75.2513V65.6753H41.8724V76.1963H37.3574ZM38.1764 80.1653V78.1283H40.1084V80.1653H38.1764ZM41.3054 80.1653V78.1283H43.2374V80.1653H41.3054ZM48.469 76.1963V74.4533H50.716V76.1963H48.469ZM44.248 76.1963C44.164 76.1963 44.094 76.1753 44.038 76.1333C43.982 76.0913 43.94 76.0353 43.912 75.9653C43.884 75.8813 43.863 75.7833 43.849 75.6713C43.835 75.5593 43.828 75.4403 43.828 75.3143C43.828 75.1323 43.842 74.9783 43.87 74.8523C43.884 74.7263 43.926 74.6283 43.996 74.5583C44.052 74.4883 44.136 74.4533 44.248 74.4533V76.1963ZM44.248 76.1963V74.4533H47.503L46.495 75.2513V65.6753H48.469V76.1963H44.248ZM50.716 76.1963V74.4533C50.8 74.4533 50.87 74.4743 50.926 74.5163C50.982 74.5583 51.024 74.6143 51.052 74.6843C51.08 74.7543 51.101 74.8453 51.115 74.9573C51.129 75.0553 51.136 75.1743 51.136 75.3143C51.136 75.4403 51.129 75.5593 51.115 75.6713C51.101 75.7833 51.08 75.8813 51.052 75.9653C51.024 76.0353 50.982 76.0913 50.926 76.1333C50.87 76.1753 50.8 76.1963 50.716 76.1963ZM46.495 80.1653V78.1283H48.469V80.1653H46.495ZM50.708 76.1963V74.4533H55.958V76.1963H50.708ZM55.958 76.1963V74.4533C56.042 74.4533 56.112 74.4743 56.168 74.5163C56.224 74.5583 56.266 74.6143 56.294 74.6843C56.322 74.7543 56.343 74.8453 56.357 74.9573C56.371 75.0553 56.378 75.1743 56.378 75.3143C56.378 75.4403 56.371 75.5593 56.357 75.6713C56.343 75.7833 56.322 75.8813 56.294 75.9653C56.266 76.0353 56.224 76.0913 56.168 76.1333C56.112 76.1753 56.042 76.1963 55.958 76.1963ZM50.708 76.1963C50.624 76.1963 50.554 76.1753 50.498 76.1333C50.442 76.0913 50.4 76.0353 50.372 75.9653C50.344 75.8813 50.323 75.7833 50.309 75.6713C50.295 75.5593 50.288 75.4403 50.288 75.3143C50.288 75.1323 50.302 74.9783 50.33 74.8523C50.344 74.7263 50.386 74.6283 50.456 74.5583C50.512 74.4883 50.596 74.4533 50.708 74.4533V76.1963ZM69.734 76.1963V74.4533H72.002V76.1963H69.734ZM55.958 76.1963V74.4533H70.091L68.327 76.0073V71.1983C68.327 70.3443 68.208 69.6443 67.97 69.0983C67.746 68.5383 67.403 68.1253 66.941 67.8593C66.479 67.5793 65.905 67.4393 65.219 67.4393C64.617 67.4393 64.05 67.5443 63.518 67.7543C62.986 67.9643 62.496 68.2443 62.048 68.5943C61.6 68.9303 61.18 69.3013 60.788 69.7073C60.396 70.1133 60.039 70.5193 59.717 70.9253C59.409 71.3313 59.129 71.6953 58.877 72.0173L58.289 70.3793C58.765 69.7773 59.234 69.2033 59.696 68.6573C60.158 68.0973 60.655 67.5933 61.187 67.1453C61.733 66.6973 62.335 66.3403 62.993 66.0743C63.665 65.8083 64.435 65.6753 65.303 65.6753C66.283 65.6753 67.095 65.8433 67.739 66.1793C68.383 66.5153 68.887 66.9563 69.251 67.5023C69.629 68.0483 69.895 68.6503 70.049 69.3083C70.203 69.9523 70.28 70.5823 70.28 71.1983V76.1963H55.958ZM57.365 74.4533V61.2023H59.318V74.4533H57.365ZM55.958 76.1963C55.874 76.1963 55.804 76.1753 55.748 76.1333C55.692 76.0913 55.65 76.0353 55.622 75.9653C55.594 75.8813 55.573 75.7833 55.559 75.6713C55.545 75.5593 55.538 75.4403 55.538 75.3143C55.538 75.1323 55.552 74.9783 55.58 74.8523C55.594 74.7263 55.636 74.6283 55.706 74.5583C55.762 74.4883 55.846 74.4533 55.958 74.4533V76.1963ZM72.002 76.1963V74.4533C72.086 74.4533 72.156 74.4743 72.212 74.5163C72.268 74.5583 72.31 74.6143 72.338 74.6843C72.366 74.7543 72.387 74.8453 72.401 74.9573C72.415 75.0553 72.422 75.1743 72.422 75.3143C72.422 75.4403 72.415 75.5593 72.401 75.6713C72.387 75.7833 72.366 75.8813 72.338 75.9653C72.31 76.0353 72.268 76.0913 72.212 76.1333C72.156 76.1753 72.086 76.1963 72.002 76.1963ZM74.4941 76.1963V61.2023H76.4471V76.1963H74.4941ZM71.9951 76.1963V74.4533H74.4941V76.1963H71.9951ZM71.9951 76.1963C71.9111 76.1963 71.8411 76.1753 71.7851 76.1333C71.7291 76.0913 71.6871 76.0353 71.6591 75.9653C71.6311 75.8813 71.6101 75.7833 71.5961 75.6713C71.5821 75.5593 71.5751 75.4403 71.5751 75.3143C71.5751 75.1323 71.5891 74.9783 71.6171 74.8523C71.6311 74.7263 71.6731 74.6283 71.7431 74.5583C71.7991 74.4883 71.8831 74.4533 71.9951 74.4533V76.1963ZM79.9984 76.1963V61.2023H81.9514V76.1963H79.9984ZM95.8324 79.7243V78.0023H97.3864V79.7243H95.8324ZM94.5304 82.8953C93.4804 82.8953 92.5634 82.7273 91.7794 82.3913C91.0094 82.0693 90.4144 81.5863 89.9944 80.9423C89.5744 80.3123 89.3644 79.5563 89.3644 78.6743C89.3644 77.7783 89.5744 77.0153 89.9944 76.3853C90.4144 75.7553 91.0094 75.2793 91.7794 74.9573C92.5634 74.6213 93.4874 74.4533 94.5514 74.4533H97.6804V70.1273C97.6804 69.2453 97.4004 68.5803 96.8404 68.1323C96.2804 67.6843 95.4194 67.4603 94.2574 67.4603C93.9074 67.4603 93.4034 67.4883 92.7454 67.5443C92.0874 67.6003 91.3874 67.6843 90.6454 67.7963L90.4354 66.2213C91.0234 66.0673 91.6534 65.9413 92.3254 65.8433C93.0114 65.7313 93.6694 65.6753 94.2994 65.6753C95.3914 65.6753 96.3294 65.8503 97.1134 66.2003C97.9114 66.5503 98.5274 67.0613 98.9614 67.7333C99.4094 68.3913 99.6334 69.1893 99.6334 70.1273V76.1963H94.5514C93.4314 76.1963 92.6124 76.4063 92.0944 76.8263C91.5764 77.2463 91.3174 77.8693 91.3174 78.6953C91.3174 79.4933 91.5764 80.1023 92.0944 80.5223C92.6124 80.9423 93.4244 81.1523 94.5304 81.1523C94.7684 81.1523 95.0344 81.1383 95.3284 81.1103C95.6364 81.0963 96.0004 81.0613 96.4204 81.0053L96.6724 82.6853C96.3504 82.7413 96.0004 82.7903 95.6224 82.8323C95.2584 82.8743 94.8944 82.8953 94.5304 82.8953ZM113.029 76.1963V74.4533H115.276V76.1963H113.029ZM101.731 76.1963V74.4533H112.105L111.076 75.5033V61.2023H113.029V76.1963H101.731ZM104.965 74.4533V64.1633H106.918V74.4533H104.965ZM115.276 76.1963V74.4533C115.36 74.4533 115.43 74.4743 115.486 74.5163C115.542 74.5583 115.584 74.6143 115.612 74.6843C115.64 74.7543 115.661 74.8453 115.675 74.9573C115.689 75.0553 115.696 75.1743 115.696 75.3143C115.696 75.4403 115.689 75.5593 115.675 75.6713C115.661 75.7833 115.64 75.8813 115.612 75.9653C115.584 76.0353 115.542 76.0913 115.486 76.1333C115.43 76.1753 115.36 76.1963 115.276 76.1963ZM115.267 76.1963V74.4533H118.543C119.313 74.4533 120.048 74.3203 120.748 74.0543C121.462 73.7883 122.12 73.4383 122.722 73.0043C123.324 72.5703 123.842 72.0873 124.276 71.5553C124.724 71.0233 125.074 70.4843 125.326 69.9383C125.578 69.3923 125.704 68.8743 125.704 68.3843V67.1033L126.712 68.6783C125.914 68.2583 125.123 67.9503 124.339 67.7543C123.569 67.5443 122.82 67.4393 122.092 67.4393C121.378 67.4393 120.629 67.5443 119.845 67.7543C119.075 67.9503 118.298 68.2583 117.514 68.6783L118.522 67.1033V68.3843C118.522 68.8743 118.648 69.3923 118.9 69.9383C119.152 70.4843 119.495 71.0233 119.929 71.5553C120.363 72.0873 120.881 72.5703 121.483 73.0043C122.085 73.4383 122.736 73.7883 123.436 74.0543C124.15 74.3203 124.892 74.4533 125.662 74.4533H128.812V76.1963H125.914C124.822 76.1963 123.8 76.0213 122.848 75.6713C121.896 75.3213 121.035 74.8593 120.265 74.2853C119.495 73.6973 118.83 73.0603 118.27 72.3743C117.724 71.6743 117.304 70.9813 117.01 70.2953C116.716 69.5953 116.569 68.9583 116.569 68.3843V67.1453C117.171 66.8233 117.787 66.5573 118.417 66.3473C119.047 66.1233 119.677 65.9553 120.307 65.8433C120.937 65.7313 121.532 65.6753 122.092 65.6753C122.68 65.6753 123.282 65.7313 123.898 65.8433C124.514 65.9553 125.137 66.1233 125.767 66.3473C126.411 66.5573 127.034 66.8233 127.636 67.1453V68.3843C127.636 68.9583 127.489 69.5953 127.195 70.2953C126.901 70.9813 126.474 71.6743 125.914 72.3743C125.368 73.0603 124.71 73.6973 123.94 74.2853C123.17 74.8593 122.309 75.3213 121.357 75.6713C120.405 76.0213 119.383 76.1963 118.291 76.1963H115.267ZM115.267 76.1963C115.183 76.1963 115.113 76.1753 115.057 76.1333C115.001 76.0913 114.959 76.0353 114.931 75.9653C114.903 75.8813 114.882 75.7833 114.868 75.6713C114.854 75.5593 114.847 75.4403 114.847 75.3143C114.847 75.1323 114.861 74.9783 114.889 74.8523C114.903 74.7263 114.945 74.6283 115.015 74.5583C115.071 74.4883 115.155 74.4533 115.267 74.4533V76.1963ZM128.812 76.1963V74.4533C128.896 74.4533 128.966 74.4743 129.022 74.5163C129.078 74.5583 129.12 74.6143 129.148 74.6843C129.176 74.7543 129.197 74.8453 129.211 74.9573C129.225 75.0553 129.232 75.1743 129.232 75.3143C129.232 75.4403 129.225 75.5593 129.211 75.6713C129.197 75.7833 129.176 75.8813 129.148 75.9653C129.12 76.0353 129.078 76.0913 129.022 76.1333C128.966 76.1753 128.896 76.1963 128.812 76.1963ZM131.301 76.1963V61.2023H133.254V76.1963H131.301ZM128.802 76.1963V74.4533H131.301V76.1963H128.802ZM128.802 76.1963C128.718 76.1963 128.648 76.1753 128.592 76.1333C128.536 76.0913 128.494 76.0353 128.466 75.9653C128.438 75.8813 128.417 75.7833 128.403 75.6713C128.389 75.5593 128.382 75.4403 128.382 75.3143C128.382 75.1323 128.396 74.9783 128.424 74.8523C128.438 74.7263 128.48 74.6283 128.55 74.5583C128.606 74.4883 128.69 74.4533 128.802 74.4533V76.1963ZM136.805 76.1963V61.2023H138.758V76.1963H136.805ZM150.287 81.0053C149.783 81.0053 149.251 80.9633 148.691 80.8793C148.145 80.8093 147.543 80.7043 146.885 80.5643L147.179 78.9893C147.921 79.0733 148.537 79.1363 149.027 79.1783C149.517 79.2203 149.937 79.2413 150.287 79.2413C151.407 79.2413 152.219 79.0313 152.723 78.6113C153.241 78.1913 153.5 77.5823 153.5 76.7843V66.9143L154.298 67.4393H151.001C150.259 67.4393 149.678 67.5303 149.258 67.7123C148.838 67.8803 148.544 68.2233 148.376 68.7413C148.208 69.2453 148.124 69.9873 148.124 70.9673C148.124 71.9333 148.208 72.6683 148.376 73.1723C148.544 73.6623 148.831 73.9983 149.237 74.1803C149.657 74.3623 150.245 74.4533 151.001 74.4533H153.5V76.1963H151.001C149.783 76.1963 148.824 76.0143 148.124 75.6503C147.424 75.2723 146.92 74.6983 146.612 73.9283C146.318 73.1443 146.171 72.1573 146.171 70.9673C146.171 69.7633 146.318 68.7693 146.612 67.9853C146.92 67.2013 147.424 66.6203 148.124 66.2423C148.824 65.8643 149.783 65.6753 151.001 65.6753H155.453V76.7633C155.453 77.6593 155.243 78.4223 154.823 79.0523C154.403 79.6963 153.808 80.1793 153.038 80.5013C152.268 80.8373 151.351 81.0053 150.287 81.0053Z" fill="#003366"/>
<g clip-path="url(#clip0_194_412)">
<path d="M191.529 25.0568C190.661 25.2334 189.855 25.6361 189.192 26.2243C188.529 26.8125 188.033 27.5652 187.755 28.4064C187.467 29.4217 187.477 30.4981 187.781 31.5084C188.524 33.4792 190.451 34.867 192.457 34.867C193.572 34.83 194.648 34.4433 195.532 33.7618C196.073 33.3349 196.517 32.7983 196.836 32.1873C197.154 31.5762 197.34 30.9047 197.38 30.2168C197.44 29.125 197.138 28.0438 196.522 27.1409C195.905 26.238 195.007 25.564 193.968 25.2234C193.315 25.0216 192.069 24.9332 191.529 25.0568Z" fill="#003366"/>
<path d="M176.326 65.3447C175.442 66.4349 174.333 67.8116 173.812 68.4493C173.415 68.9354 172.787 69.7042 172.425 70.155C172.334 70.2676 172.083 70.6951 172.083 70.6951C172.083 70.6951 173 72.2119 173.107 72.1054C173.301 71.911 174.556 70.8592 175.891 69.7634C176.556 69.2173 178.646 67.3739 178.646 67.3739C178.646 67.3739 177.618 67.1577 177.097 66.6107C176.763 66.2408 176.501 65.8113 176.326 65.3447Z" fill="#003366"/>
<path d="M171.621 70.7946C171.621 70.7946 169.419 72.0228 169.12 72.3771C168.671 72.9069 168.511 73.2647 168.562 73.6292C168.617 74.0314 169.594 75.6115 170.44 76.6485C171.633 78.119 172.732 79.071 173.272 79.1025C173.431 79.0846 173.585 79.0389 173.728 78.9675C173.949 78.8343 173.468 77.9703 173.468 77.9703C173.468 77.9703 172.522 75.199 172.357 74.5117C172.114 73.5026 172.894 72.6227 172.894 72.6227L171.621 70.7946Z" fill="#003366"/>
<path d="M210.956 25.7729C210.549 25.8878 210.196 26.2767 209.383 27.4699C207.244 30.6426 204.619 33.1349 201.605 34.8407C199.625 35.9542 196.859 36.7233 194.809 36.7233C193.754 36.69 192.702 36.5837 191.662 36.4051C191.247 36.3344 190.257 36.1575 189.452 36.0074C188.359 35.8023 187.25 35.6958 186.138 35.6892C182.921 35.6008 180.746 35.9455 177.963 37.006C175.604 37.8987 172.943 39.6485 170.584 41.8403C168.63 43.661 168.295 44.1912 168.639 44.8541C168.816 45.1988 169.055 45.3129 169.558 45.305C170.301 45.305 171.344 44.8366 173.376 43.608C175.586 42.2734 177.571 41.4308 179.333 41.0802C180.526 40.8508 182.621 40.8682 183.62 41.1244C185.157 41.5311 186.377 42.3529 186.969 43.3782C187.659 44.5889 187.685 46.3301 187.04 48.0446C186.395 49.7591 184.53 52.9056 182.364 55.9457C182.082 56.3346 181.746 56.8119 181.614 56.9975C180.738 58.2349 178.486 61.1514 176.832 63.1929C176.094 64.1039 176.681 65.7502 177.801 66.4959C178.932 67.2493 180.648 67.0564 180.648 67.0564C181.653 66.204 182.789 65.232 184.018 64.174C186.095 62.3888 187.845 60.8154 190.903 58.0051C191.072 57.8318 191.269 57.6884 191.486 57.581C191.769 57.581 194.748 58.0397 195.543 58.2084C196.592 58.4387 197.625 58.7339 198.636 59.0922C199.644 59.5253 199.697 60.0378 198.84 61.1161C197.611 62.654 194.96 65.3584 192.388 67.6916C191.861 68.1498 191.365 68.6429 190.903 69.1676C190.823 69.349 190.783 69.5457 190.786 69.744C190.789 69.9423 190.835 70.1377 190.921 70.3166C191.107 70.679 192.079 71.766 193.175 72.8353C194.659 74.2848 195.42 74.8946 196.029 75.1244C196.384 75.257 196.436 75.257 196.683 75.1331C197.142 74.8946 197.134 74.6118 196.577 72.959C196.029 71.3239 195.729 70.2104 195.729 69.857C195.729 69.565 196.029 69.2647 196.789 68.7787C199.061 67.3292 201.871 65.3588 203.02 64.4038C205.901 62.0176 206.865 60.5239 206.759 58.5796C206.723 57.9432 206.67 57.7576 206.334 57.0772C205.495 55.3802 203.259 53.6392 200.546 52.5609C199.43 52.103 198.268 51.7652 197.081 51.5533C196.83 51.5339 196.582 51.4773 196.347 51.3854C196.347 51.1911 198.053 47.2316 198.689 45.9589C200.042 43.2191 200.651 42.4855 203.639 39.9579C206.829 37.2713 208.243 35.7686 209.781 33.4709C210.85 31.8623 212.061 29.0253 212.362 27.3902C212.45 26.9129 212.441 26.7805 212.309 26.4358C212.266 26.3019 212.196 26.178 212.104 26.0716C212.012 25.9653 211.9 25.8785 211.773 25.8166C211.647 25.7547 211.51 25.719 211.369 25.7115C211.229 25.7039 211.088 25.7248 210.956 25.7729Z" fill="#003366"/>
</g>
<defs>
<clipPath id="clip0_194_412">
<rect width="46.4189" height="57.1958" fill="white" transform="translate(166 25)"/>
</clipPath>
</defs>
</svg>
